<svg xmlns="http://www.w3.org/2000/svg" width="1200" height="420" viewBox="0 0 1200 420" role="img" aria-labelledby="title desc">
  <title id="title">TensorEEG-py cover</title>
  <desc id="desc">Physics-Constrained EEG Simulation and Covariance-Aware Augmentation</desc>
  
    <defs>
      <linearGradient id="accentGrad" x1="0" x2="1" y1="0" y2="1">
        <stop offset="0" stop-color="#0891B2"/>
        <stop offset="1" stop-color="#7C3AED"/>
      </linearGradient>
      <filter id="softShadow" x="-20%" y="-20%" width="140%" height="140%">
        <feDropShadow dx="0" dy="8" stdDeviation="12" flood-color="#0F172A" flood-opacity="0.08"/>
      </filter>
      <pattern id="grid" width="32" height="32" patternUnits="userSpaceOnUse">
        <path d="M 32 0 L 0 0 0 32" fill="none" stroke="#E2E8F0" stroke-width="1" opacity="0.55"/>
      </pattern>
    </defs>
  <rect width="1200" height="420" fill="#F8FAFC"/>
  <rect width="1200" height="420" fill="url(#grid)" opacity="0.36"/>
  <circle cx="1020" cy="88" r="150" fill="#0891B2" opacity="0.045"/>
  <circle cx="114" cy="350" r="120" fill="#7C3AED" opacity="0.045"/>
  <g font-family="Inter, ui-sans-serif, system-ui, -apple-system, BlinkMacSystemFont, Segoe UI, sans-serif">
    <rect x="48" y="30" width="1104" height="360" rx="24" fill="#FFFFFF" opacity="0.96" filter="url(#softShadow)"/>
    <rect x="48" y="30" width="1104" height="360" rx="24" fill="none" stroke="#E2E8F0" stroke-width="1.2"/>
    <text x="86" y="82" fill="#0F172A" font-size="42" font-weight="850" letter-spacing="0">TensorEEG-py</text>
    <text x="88" y="112" fill="#475569" font-size="17" font-weight="550" letter-spacing="0">Physics-Constrained EEG Simulation and Covariance-Aware Augmentation</text>
    <rect x="954" y="56" width="156" height="34" rx="17" fill="#F8FAFC" stroke="#0891B2" stroke-width="1.4"/>
    <text x="1032" y="78" fill="#0891B2" font-size="13" font-weight="800" text-anchor="middle" letter-spacing="0">Python package</text>
    <g transform="translate(0 16)"><path d="M 155 140 L 305 140 L 345 185 L 195 185 Z" fill="#FFFFFF" stroke="#CBD5E1" stroke-width="1.3" stroke-linecap="round" stroke-linejoin="round"/><path d="M 195 185 L 345 185 L 345 290 L 195 290 Z" fill="#F8FAFC" stroke="#CBD5E1" stroke-width="1.3" stroke-linecap="round" stroke-linejoin="round"/><path d="M 155 140 L 195 185 L 195 290 L 155 245 Z" fill="#F1F5F9" stroke="#CBD5E1" stroke-width="1.3" stroke-linecap="round" stroke-linejoin="round"/><line x1="195" y1="185" x2="195" y2="290" stroke="#CBD5E1" stroke-width="0.8" opacity="0.6" stroke-linecap="round"/><line x1="225" y1="185" x2="225" y2="290" stroke="#CBD5E1" stroke-width="0.8" opacity="0.6" stroke-linecap="round"/><line x1="255" y1="185" x2="255" y2="290" stroke="#CBD5E1" stroke-width="0.8" opacity="0.6" stroke-linecap="round"/><line x1="285" y1="185" x2="285" y2="290" stroke="#CBD5E1" stroke-width="0.8" opacity="0.6" stroke-linecap="round"/><line x1="315" y1="185" x2="315" y2="290" stroke="#CBD5E1" stroke-width="0.8" opacity="0.6" stroke-linecap="round"/><line x1="195" y1="210" x2="345" y2="210" stroke="#CBD5E1" stroke-width="0.8" opacity="0.6" stroke-linecap="round"/><line x1="195" y1="232" x2="345" y2="232" stroke="#CBD5E1" stroke-width="0.8" opacity="0.6" stroke-linecap="round"/><line x1="195" y1="254" x2="345" y2="254" stroke="#CBD5E1" stroke-width="0.8" opacity="0.6" stroke-linecap="round"/><line x1="195" y1="276" x2="345" y2="276" stroke="#CBD5E1" stroke-width="0.8" opacity="0.6" stroke-linecap="round"/><text x="250" y="323" fill="#475569" font-size="14" font-weight="800" text-anchor="middle" letter-spacing="0" >T x C x K tensor</text><rect x="480" y="136" width="128" height="92" rx="12" fill="#FFFFFF" stroke="#CBD5E1" stroke-width="1.2"/><ellipse cx="544" cy="182" rx="42" ry="21" fill="#0891B2" opacity="0.1" stroke="#0891B2" stroke-width="2" transform="rotate(-18 544 182)"/><rect x="494" y="150" width="128" height="92" rx="12" fill="#FFFFFF" stroke="#CBD5E1" stroke-width="1.2"/><ellipse cx="558" cy="196" rx="42" ry="21" fill="#0891B2" opacity="0.1" stroke="#0891B2" stroke-width="2" transform="rotate(-11 558 196)"/><rect x="508" y="164" width="128" height="92" rx="12" fill="#FFFFFF" stroke="#CBD5E1" stroke-width="1.2"/><ellipse cx="572" cy="210" rx="42" ry="21" fill="#0891B2" opacity="0.1" stroke="#0891B2" stroke-width="2" transform="rotate(-4 572 210)"/><rect x="522" y="178" width="128" height="92" rx="12" fill="#FFFFFF" stroke="#CBD5E1" stroke-width="1.2"/><ellipse cx="586" cy="224" rx="42" ry="21" fill="#0891B2" opacity="0.1" stroke="#0891B2" stroke-width="2" transform="rotate(3 586 224)"/><text x="570" y="323" fill="#475569" font-size="14" font-weight="800" text-anchor="middle" letter-spacing="0" >SPD covariance stack</text><circle cx="850" cy="212" r="62" fill="none" stroke="#7C3AED" stroke-width="2.5" opacity="0.8"/><circle cx="850" cy="212" r="112" fill="none" stroke="#0891B2" stroke-width="2.5" opacity="0.35"/><circle cx="869.036320004827" cy="141.04761944083089" r="18" fill="#FFFFFF" stroke="#0891B2" stroke-width="1.8"/><text x="869.036320004827" y="146.04761944083089" fill="#0891B2" font-size="12" font-weight="800" text-anchor="middle" letter-spacing="0" >E0</text><circle cx="935.6623249758627" cy="165.61632651888624" r="18" fill="#FFFFFF" stroke="#7C3AED" stroke-width="1.8"/><text x="935.6623249758627" y="170.61632651888624" fill="#7C3AED" font-size="12" font-weight="800" text-anchor="middle" letter-spacing="0" >G0</text><circle cx="962.0" cy="212.0" r="18" fill="#FFFFFF" stroke="#0891B2" stroke-width="1.8"/><text x="962.0" y="217.0" fill="#0891B2" font-size="12" font-weight="800" text-anchor="middle" letter-spacing="0" >G1</text><circle cx="935.6623249758627" cy="258.38367348111376" r="18" fill="#FFFFFF" stroke="#7C3AED" stroke-width="1.8"/><text x="935.6623249758627" y="263.38367348111376" fill="#7C3AED" font-size="12" font-weight="800" text-anchor="middle" letter-spacing="0" >G2</text><circle cx="869.036320004827" cy="282.9523805591691" r="18" fill="#FFFFFF" stroke="#0891B2" stroke-width="1.8"/><text x="869.036320004827" y="287.9523805591691" fill="#0891B2" font-size="12" font-weight="800" text-anchor="middle" letter-spacing="0" >A0</text><text x="850" y="323" fill="#475569" font-size="14" font-weight="800" text-anchor="middle" letter-spacing="0" >augmentation audit</text></g>
    <line x1="86" y1="364" x2="1114" y2="364" stroke="#E2E8F0" stroke-width="1"/>
    <circle cx="92" cy="379" r="4" fill="#0891B2"/>
    <text x="108" y="384" fill="#64748B" font-size="13" font-weight="650" letter-spacing="0">Cross-session EEG / BCI methods toolkit</text>
    <text x="1114" y="384" fill="#94A3B8" font-size="12" font-weight="600" text-anchor="end" letter-spacing="0">Yiming Shen</text>
  </g>
</svg>
